<svg id="Layer_1" data-name="Layer 1" xmlns="http://www.w3.org/2000/svg" xmlns:xlink="http://www.w3.org/1999/xlink" viewBox="0 0 2500 1448.59"><defs><style>.cls-1,.cls-2{fill:none;}.cls-2{clip-rule:evenodd;}.cls-3{clip-path:url(#clip-path);}.cls-4{fill:url(#linear-gradient);}.cls-5{clip-path:url(#clip-path-2);}.cls-6{fill:url(#linear-gradient-2);}.cls-7{clip-path:url(#clip-path-3);}.cls-8{fill:url(#linear-gradient-3);}.cls-9{clip-path:url(#clip-path-4);}.cls-10{fill:url(#linear-gradient-4);}.cls-11{fill:#fff;}.cls-12{fill:#1798b5;}.cls-12,.cls-13,.cls-14,.cls-15,.cls-16,.cls-17,.cls-18,.cls-19,.cls-22,.cls-23,.cls-32,.cls-33{fill-rule:evenodd;}.cls-13{fill:#fba2b4;}.cls-14{fill:#f7839a;}.cls-15{fill:#e8617c;}.cls-16{fill:#f26d88;}.cls-17{fill:#162963;}.cls-18{fill:#f2778f;}.cls-19{fill:#369;}.cls-20{clip-path:url(#clip-path-5);}.cls-21{fill:url(#linear-gradient-5);}.cls-22{fill:#192f6e;}.cls-23{fill:#243c82;}.cls-24{clip-path:url(#clip-path-6);}.cls-25{fill:url(#linear-gradient-6);}.cls-26{clip-path:url(#clip-path-7);}.cls-27{fill:url(#linear-gradient-7);}.cls-28{clip-path:url(#clip-path-8);}.cls-29{fill:url(#linear-gradient-8);}.cls-30{clip-path:url(#clip-path-9);}.cls-31{fill:url(#linear-gradient-9);}.cls-32{fill:#1bbeee;}.cls-33{fill:#9ff;}</style><clipPath id="clip-path"><rect class="cls-1" x="-2.87" y="0.98" width="2500" height="1447.61"/></clipPath><linearGradient id="linear-gradient" x1="1247.13" y1="1727.3" x2="1247.13" y2="181.44" gradientUnits="userSpaceOnUse"><stop offset="0" stop-color="#b0d8ff"/><stop offset="0.05" stop-color="#b6dbff"/><stop offset="0.47" stop-color="#ddeefe"/><stop offset="0.8" stop-color="#f5fafe"/><stop offset="1" stop-color="#fefefe"/></linearGradient><clipPath id="clip-path-2"><path class="cls-2" d="M900.89,1H-2.87V1448.59h2500V911.27c-175-47.79-252.86,179.08-397.1-6.8C1832,559,1682.77,891,1514.93,631.83c-113.28-174.89-128.66-194-396-274.64S900.89,1,900.89,1"/></clipPath><linearGradient id="linear-gradient-2" x1="1247.13" y1="1353.82" x2="1247.13" y2="181.44" gradientUnits="userSpaceOnUse"><stop offset="0" stop-color="#8cc2f7"/><stop offset="1" stop-color="#e0f3fc"/></linearGradient><clipPath id="clip-path-3"><path class="cls-2" d="M-2.87,1448.59h2500V1020c-190.66-45.63-189.32,124.93-308.84,126-44.56.39-89.85-2.85-191.34-78.4-47.68-35.49-145-95.06-229.15-86.18-104.88,11.07-173.39,71.2-259.59-13.06-121.16-118.44-57-51.38-60.74-200.09-3.12-122.38-77.88-212.69-208.67-258.19C971.28,417,435.43,613.65,445.19,1H-2.87Z"/></clipPath><linearGradient id="linear-gradient-3" x1="1472.29" y1="1207.41" x2="711.27" y2="-423.81" gradientUnits="userSpaceOnUse"><stop offset="0" stop-color="#2abcbb"/><stop offset="0.17" stop-color="#2ab4be"/><stop offset="0.43" stop-color="#299ec6"/><stop offset="0.75" stop-color="#287ad4"/><stop offset="1" stop-color="#2759e0"/></linearGradient><clipPath id="clip-path-4"><path class="cls-2" d="M1431.66,634.58c-48.8-48.07-94.33-92.91-182-121.13H-2.87V634.58Zm91.28,182c0-3.48,0-7-.08-10.46a251.6,251.6,0,0,0-11.31-69.66H-2.87v80.12ZM-2.87,850.76H1316.59v17.17H-2.87Zm0-486.87H568.65l31.77,38.86H-2.87ZM1482,1068c1.37-13.26,3.38-26.62,5.77-40.06H-2.87V1068Z"/></clipPath><linearGradient id="linear-gradient-4" x1="995.4" y1="1415.16" x2="356.74" y2="-482.29" gradientUnits="userSpaceOnUse"><stop offset="0" stop-color="#23dbdb"/><stop offset="0.14" stop-color="#23d3db"/><stop offset="0.35" stop-color="#24bddc"/><stop offset="0.62" stop-color="#2599de"/><stop offset="0.92" stop-color="#2767df"/><stop offset="1" stop-color="#2759e0"/></linearGradient><clipPath id="clip-path-5"><polygon class="cls-2" points="999.84 1099.74 842.99 1121.17 979.42 1296.4 1170.82 1246.89 999.84 1099.74"/></clipPath><linearGradient id="linear-gradient-5" x1="1006.9" y1="1334.26" x2="1006.9" y2="1124.28" xlink:href="#linear-gradient"/><clipPath id="clip-path-6"><path class="cls-2" d="M1391.22,1352.35s25.52,15.65,29.6,27.22-11.91,17.69-17.35,18.37-124.53,31.3-128.27,32.33-21.71-4.46-26.51-18.56,6.78-72.29,27.87-79.09,114.66,19.73,114.66,19.73"/></clipPath><linearGradient id="linear-gradient-6" x1="1334.4" y1="1430.24" x2="1334.4" y2="1342.53" gradientUnits="userSpaceOnUse"><stop offset="0" stop-color="#1e9ef9"/><stop offset="1" stop-color="#bae5ff"/></linearGradient><clipPath id="clip-path-7"><path class="cls-2" d="M1251.17,1117.73c-16.82,11.77-151.27,24.09-152,39-.34,6.81,111.6,73.5,122.15,80s30.28,11.23,47,5.44,123.81-46.37,130.12-55.34-6.61-29.72-6.61-29.72l-93.23-40.83Z"/></clipPath><linearGradient id="linear-gradient-7" x1="1247.69" y1="1229.04" x2="1259.24" y2="1095.67" xlink:href="#linear-gradient"/><clipPath id="clip-path-8"><path class="cls-2" d="M1509.94,1115l-16.9,78.33s-2.21,19.57-15,23.82-23.81-4.08-23.81-4.08L989.48,994.93s-5.44-2-4.42-10.55c.24-2,5.19-24.91,12.62-58.83Z"/></clipPath><linearGradient id="linear-gradient-8" x1="1230.01" y1="1198.85" x2="1261.52" y2="966.07" xlink:href="#linear-gradient"/><clipPath id="clip-path-9"><polygon class="cls-2" points="1586.54 559.76 1479.03 1057.88 1014.93 901.37 1086.38 593.11 1586.54 559.76"/></clipPath><linearGradient id="linear-gradient-9" x1="1282.07" y1="983.39" x2="1324.93" y2="582.59" gradientUnits="userSpaceOnUse"><stop offset="0" stop-color="#243c82"/><stop offset="1" stop-color="#1bc3f2"/></linearGradient></defs><g class="cls-3"><rect class="cls-4" x="-2.87" y="0.98" width="2500" height="1447.61"/></g><g class="cls-5"><rect class="cls-6" x="-2.87" y="0.98" width="2500" height="1447.61"/></g><g class="cls-7"><rect class="cls-8" x="-2.87" y="0.98" width="2500" height="1447.61"/></g><g class="cls-9"><rect class="cls-10" x="-2.87" y="363.89" width="1525.83" height="704.07"/></g><path class="cls-11" d="M1460.71,983.53c-96.14-46.46-229-75.2-375.78-75.2s-279.64,28.74-375.79,75.2C613.3,1029.85,554,1093.75,554,1164.23s59.29,134.38,155.13,180.7c96.15,46.46,229,75.2,375.79,75.2s279.64-28.74,375.78-75.2c95.85-46.32,155.13-110.22,155.13-180.7s-59.28-134.38-155.13-180.7m-375.78-77.9c147.2,0,280.49,28.85,377,75.49,96.8,46.78,156.68,111.52,156.68,183.11s-59.88,136.33-156.68,183.11c-96.51,46.64-229.8,75.49-377,75.49s-280.5-28.85-377-75.49c-96.81-46.78-156.68-111.52-156.68-183.11s59.87-136.33,156.68-183.11C804.43,934.48,937.73,905.63,1084.93,905.63Z"/><path class="cls-12" d="M1114.09,1003.05c211.86,0,383.62,83,383.62,185.4s-171.76,185.4-383.62,185.4-383.62-83-383.62-185.4,171.75-185.4,383.62-185.4"/><path class="cls-13" d="M670.68,386.66c.69,4.09,2.72,19.74.69,44.24s-3.41,42.19-2,49-9,20.59-11.74,25.52-1.36,11.74-1.36,11.74l19.91,59s.68,8.17-6.64,10.38-13.78,3.4-15.31,3.23-11.39.17-11.39.17,3.91,24.5,2.38,27-8.68,3.75-14.12,6.47-6.47,6.8-6.47,6.8c12.83,24.79-.57,62.33-35.12,76.26-8.46,3.42-61.94-12.2-76.82-14.67,0,0-61.92,53.08-65.66,62.94s-1,17.36-1,17.36,19.73,42.87,18.37,53.76-23.13,15.65-23.13,15.65l-106.5-100-82-100.72s46.95-8.5,60.22-32.32S335,560.88,333.68,505.76s7.48-147.67,72.13-187.14c84.47-51.57,246.81-59,264.87,68"/><path class="cls-14" d="M670.68,386.66a104,104,0,0,1,1.43,16.09c-30.15-2.88-39.84-24-61.58-42.82-30.24-26.13-54.88,2.24-54.88,2.24l.37-9.71s40.32-23.89,44.8-24.27c3.17-.26,35.94,9.34,56.11,15.8,6.67,12.12,11.42,26.27,13.75,42.67"/><path class="cls-14" d="M516.5,694.09l-3.86-2.22S450.72,745,447,754.81s-1,17.36-1,17.36,19.73,42.87,18.37,53.76-23.13,15.65-23.13,15.65l-106.5-100-82-100.72s46.95-8.5,60.22-32.32S335,560.88,333.68,505.76c-.21-8.46-.18-17.8.26-27.7l79.4-62s-6.87,35.46,2.32,58.25c3.65,9.06,33.58,66.21,50.69,48.66,6.64-6.81,8.17-8.34,5.62-16.5s8.68,7.82,6.46,15.48-7.2,25.8-8.89,27.51,47.85,132.41,47.85,132.41Z"/><path class="cls-15" d="M516.5,694.09l-3.86-2.22S450.72,745,447,754.81c-8.08,10.24-11.27,24.53-11.27,24.53-5.89-24.73,9-53,23.48-72.81,9.18-12.59,21.29-42,21.29-42l22.94-4.22,7.86,5.43c3.71,9.87,6.11,16.19,6.11,16.19Z"/><path class="cls-16" d="M667.64,488.1c-1.85,3.57-5.6,10.2-7.45,13.08a17.27,17.27,0,0,0-4.49.69c-4.11.9-5.64,21.81-5.64,21.81l-4.26-8.51c-1.61,20.08-14.89,36,3.85,48.33,0,0-3.71-.92-12,3s-6.79,13.65-6.79,13.65c-13.1-16.07,3.37-35.56,3.15-55.14-.29-27-35.5-43.69-64.61-54.24,1.75-.72,22.75,1.69,24.68,1.19,22.25-5.74,55.32,2.15,73.6,16.14"/><path class="cls-17" d="M642.79,590c-28.72,3.77-70,7.07-97.63-30.56-40.9-55.64-27.52-133.35,13.12-153.29,5-2.44,15.61-3.48,12.23-11.23-10.51-24.07-.18-40.76,13.27-44,44.72-10.94,67.05,46,90.48,38.9,12.16-3.7,31.68-13.9,40-35.24,6.85-17.56,5.4-45.79-7.7-57.05-11.8-10.15-41.27-16.67-56.43-32.26C618.69,232.88,592,208.85,542.38,201.1c-62.33-9.73-128.22,4.4-174.34,43.7-104.37,88.94-57.24,168.61-51.17,301.41,1.52,33.2,60.7,5,69.82-15,8.39-18.33,11.3-40.89,15.05-63.43,4.77-28.57,12.24-67.2,35-69.24,75.47-6.76,67,118.3,16,167.4l10.88,9.87-10.2,6.46c-24.92,70.51,103.05,155,149.83,136.17,34.54-13.94,34.13-63.42,21.3-88.21a36,36,0,0,1,8.15-5.31c5.44-2.72,10.91-5.41,12.44-8s-2.38-27-2.38-27"/><path class="cls-18" d="M470.09,464.81s-8.5,8.68-8.16,14.12,6.46,9.87,6.8,10.89-2.72,8.34-2.72,8.34-4.08-14.12-14.29-15c-11.65-1-21.67-12.3-14.46-22.63,6.29-9,20.08-13.1,20.08-13.1s4.76-3.23,6.29-7.15c4.08-10.42-4.68-16.68-16.08-15.54-26.79,2.68-25.22,28.87-17.43,49.4a99.91,99.91,0,0,0,10.2,19.05s-21.26-18-20.58-45.08,15.14-36.4,21.94-37.94,21.78-1.53,27.05,9.19,6.47,18,1.88,24-27.56,24.33-27.56,24.33-1.37,4.59,1.53,4.93c5.09.6,10.22-9.35,25.51-7.83"/><path class="cls-19" d="M843,1121.17l-.84,4.42,137.63,178.72,167-42.75c2.07,7.66,25.24,15.49,24-14.67Z"/><g class="cls-20"><rect class="cls-21" x="842.99" y="1099.74" width="327.83" height="196.66"/></g><path class="cls-13" d="M588.8,1066.22s141.75,38.55,186,34.12,98.33-22.11,98.33-22.11l62.28-5.45c4.54-.4,9-1.47,12.84,1.77,14,11.81,44.76,43.23,35.79,50a14.84,14.84,0,0,1-4.93,2.56s9.53,16.15,10.55,21.94-3.23,11.4-5.62,11.06-3.91,5.44-16.67-9.7-27.22-31.65-27.22-31.65c-7.6.46-54.63,1.29-58.52,6.3-2.38,3.06-16.84,18.89-16.84,18.89l40.66,7.65s25.35.17,29.77,3.91,15.31,11.57,10.38,16.67-5.62,12.25-18,13.27-67.72-4.93-67.72-4.93c-34.27,12.45-49.49,4.39-79.62-13.43-67.94,0-141.27,8.76-209.45,13.47,0,0-13.4-1.91-19.52-7.86s-12.76-41.68-.17-69.58,37.72-36.85,37.72-36.85"/><path class="cls-14" d="M941.76,1177.21c-2.65,3.86-5.62,7.49-14.2,8.19-12.42,1-67.72-4.93-67.72-4.93-34.27,12.45-49.49,4.39-79.62-13.43-67.94,0-141.27,8.76-209.45,13.47,0,0-13.4-1.91-19.52-7.86-4-3.86-8.15-20.21-7.18-38.84,6.74-.86,16.76-.66,31.18,2.73,33.34,7.82,57.5,4.76,84.38,8.84s102.07-2.55,112.11-1.87,21.26,5.1,21.26,5.1l15.49,6.81-2.9-8.85s43.89,16,52.91,18,36.75,3.05,48,5.27,13.61-6.64,13.61-6.64a20.59,20.59,0,0,0,4.25,9.53c3.74,4.76,15,3.91,16.84,3.57Z"/><path class="cls-14" d="M988.83,1155.42c-1.23,2.87-3.36,4.84-4.8,4.64-2.38-.34-3.91,5.44-16.67-9.7s-27.22-31.65-27.22-31.65c-7.6.46-54.63,1.29-58.52,6.3-2.38,3.06-16.84,18.89-16.84,18.89s-1.52-.39-5.68-1.32-22.29-6.56-22.29-6.56l15.65-12.92s18.21-14.64,39.81-16.51,48.83-2,48.83-2,34.36,41.43,36.83,45.6c2.05,3.47,8.07,4.82,10.9,5.27"/><path class="cls-22" d="M514.51,1010.17s42.87,36.41,58.86,44.24a154.17,154.17,0,0,0,24.07,9.43c5.44,1.59,5.19,6,5,6a40.09,40.09,0,0,0-6.05-1.44c-23.3,18.38-47.71,75.74-24.76,112.93,0,0-36.58.34-63.63-7.14s-28.75-12.93-28.75-12.93-35.22-92.55-8.68-127.26,43.9-23.82,43.9-23.82"/><path class="cls-23" d="M259.83,635.12s22.46-2.72,42.87,15.65c10.52,9.46,146.46,210.15,156.17,170.8,2.59-10.5-11.14-45.48-11.14-45.48s-3.48-6.26-2.7-11.86,1.16-9.81,5.81-14.91,11.76-12.24,11.76-12.24,66.54,82.54,63.81,200.27-28.58,232.73-28.58,232.73l-66.69,278.51h-434V886.89c0-76.5,144.25-228.95,262.7-251.77"/><path class="cls-22" d="M515.37,1068.68c-8.08,59.3-17.54,101.4-17.54,101.4l-13.72,57.31-57.48-10.64L263,785.66s35-7.83,73.83,22.46,52.4,117.72,53.76,127.93,11.57,21.09,20.42,34.71,23.81,71.79,24.84,90.5,39.12,45.93,52.73,56.48c13.46,10.43,26.52-47.73,26.82-49.06"/><path class="cls-23" d="M237.54,766.89c-66-3.4-164,.69-181.68,119.09s34,326,104.79,433.47,103.44,129.14,103.44,129.14H703.68s3.41-96.13-2.38-99.2-89.83-7.82-89.83-7.82L590.72,1347s1.7-14.29-4.08-20.07-20.42-8.17-20.42-8.17,6.47-11.57-1.7-28.92-16.67-19.73-16.67-19.73,9.95-10.89.76-25.86-20.83-15.66-20.83-15.66,1.36,1.37-4.43-10.54-17.69-15.65-17.69-15.65-25.86-51.38-40.15-60.22-17.69-15.66-17.69-15.66-31.3-57.16-37.42-87.1,5.44-38.1-11.57-64.64-18.38-47-18.38-47c-8.14-77.33-58.61-156.59-142.91-160.94"/><path class="cls-22" d="M63,855.21A188,188,0,0,0,55.86,886c-17.7,118.41,34,326,104.79,433.47s103.44,129.14,103.44,129.14H703.68s.29-8,.55-19.46c-35.19-1.66-140.12-7.33-207.82-18.52-82.33-13.61-93.22-44.92-93.22-44.92l18.37-31.3-70.09,14.3,12.25-39.48c-101.14-18.54-151.23-124.82-191.9-208.22L248,1082.61C151.67,1042.3,73.23,967.92,63,855.21"/><g class="cls-24"><rect class="cls-25" x="1243.9" y="1325.81" width="181.01" height="105.48"/></g><path class="cls-13" d="M698.91,1355.71s192.58,14.63,334.12-18,182.37-65.32,182.37-65.32,6.47-9.87,28.93-11.91,85.74-6.12,85.74-6.12l16.33,9.87,4.76,5.44,50.7,31s6.63,5.11,8.85,16.84,6,28.92,6,28.92-2,11.57-7.66,12.42-12.59-3.06-12.59-3.06,1.53,11.74-4.93,19.9-18,24.84-18,24.84-18-2.38-19.74-14.12,6.46-20.59,6.46-20.59l-8.5-11-38.45,1.7-11.74,13.95,31.31-.68s9.18,4.42,10,16.84.68,26.71.68,26.71-12.76,18-13.78,18.72-11.56,4.08-11.56,4.08-11.57-7.32-11.41-11.74a61.94,61.94,0,0,0-.67-9.87s-8.34-.68-20.93,4.09c-59.12,22.37-69.56,22.08-133,22.57-10.87.09-31.82,7.53-44.91,7.53H688.37Z"/><path class="cls-14" d="M1329.72,1431.93c-1,.68-11.56,4.08-11.56,4.08s-11.57-7.32-11.41-11.74a61.94,61.94,0,0,0-.67-9.87s-8.34-.68-20.93,4.09c-59.12,22.37-69.56,22.08-133,22.57-10.87.09-31.82,7.53-44.91,7.53H955.05s64-21.65,85.4-26.76,87.45-15.31,87.45-15.31l-3.74-6.46s25.18-2.73,39.81,1.7,37.42,16,50,16,69.75-14.63,92.21-17.69,21.77-2,24.83,7.14-1.3,24.73-1.3,24.73"/><path class="cls-14" d="M1416.66,1346.35s-2,11.57-7.66,12.42c-4.79.73-10.59-2-12.17-2.84-1.18-1.64-1.87-2.42-1.87-2.42s-13.09-19.22-24.15-30.79-18.55-14.29-22.29-15-7.48,0-23.65,4.25-44.74,10.72-44.74,10.72l3.41-5.1s35.72-20.24,54.43-23.82c19.33-3.69,42.07,17,58.18,26.88,8.34,15.08,7.25,33,20.51,25.67"/><path class="cls-14" d="M1385.72,1383.24c-5.92,8.06-12.27,17.21-12.27,17.21s-18-2.38-19.74-14.12,6.46-20.59,6.46-20.59l-8.5-11-38.45,1.7-11.74,13.95-43.64-3,11.57-9.86,32.32-18.21,49.51-7.66s34.36,25,36.58,32.16-2.1,19.52-2.1,19.52"/><path class="cls-17" d="M1617.22,512.8c27.07-2.5,15.35,28.71,13.28,43.21L1493,1193.29s-2.21,19.57-15,23.82-23.81-4.08-23.81-4.08L989.48,994.93s-5.44-2-4.42-10.55,87.78-397.91,87.78-397.91c6.79-18.74,21.15-20,38.87-20.84Z"/><path class="cls-19" d="M1252.16,1123.1c-16.38,11.46-145.88,20.65-153.27,35a4,4,0,0,0-.15,3.54,20.66,20.66,0,0,0,3.64,4.09c17.26,15.47,110.36,70.46,119.9,76.31,10.55,6.47,30.29,11.23,47,5.45s123.8-46.38,130.12-55.34-6.61-29.72-6.61-29.72l-93.23-40.84Z"/><g class="cls-26"><rect class="cls-27" x="1098.81" y="1116.25" width="305.88" height="131.68"/></g><g class="cls-28"><rect class="cls-29" x="984.04" y="925.55" width="525.9" height="295.81"/></g><g class="cls-30"><rect class="cls-31" x="1014.93" y="559.76" width="571.61" height="498.12"/></g><polygon class="cls-32" points="1067.53 750.58 1035.55 886 1297.54 975.82 1335.64 791.41 1067.53 750.58"/><polygon class="cls-19" points="1072.1 654.74 1126.9 656.49 1562.67 670.37 1567.36 648.65 1075.23 641.23 1072.1 654.74"/><polygon class="cls-32" points="1325.1 892.29 1301.74 998.09 1472.11 1055.55 1498.63 936.52 1325.1 892.29"/><polygon class="cls-33" points="1072.64 730.34 1069.58 741.91 1262.84 769.64 1265.22 753.99 1072.64 730.34"/><polygon class="cls-33" points="1231.28 624.69 1229.15 638.13 1326.13 639.66 1328.42 624.52 1231.28 624.69"/><polygon class="cls-19" points="1390.21 916.45 1386.98 931.08 1482.59 957.11 1486.84 940.61 1390.21 916.45"/><polygon class="cls-19" points="1385.79 937.72 1382.56 952.35 1477.99 979.01 1482.25 962.51 1385.79 937.72"/><polygon class="cls-19" points="1381.36 958.98 1378.13 973.61 1473.23 1001.51 1477.48 985.01 1381.36 958.98"/><polygon class="cls-19" points="1376.94 980.25 1373.71 994.88 1468.47 1022.94 1472.72 1006.45 1376.94 980.25"/><polygon class="cls-33" points="1471.15 584.54 1469.03 597.98 1566 594.07 1568.29 578.93 1471.15 584.54"/><polygon class="cls-32" points="1354.14 737.48 1350.91 752.11 1528.52 770.99 1531.57 754.38 1354.14 737.48"/><polygon class="cls-32" points="1366.05 675.56 1362.82 690.19 1541.96 700.31 1545.02 683.38 1366.05 675.56"/><polygon class="cls-19" points="1197.83 911.98 1194.6 926.61 1289.67 955.07 1293.92 938.57 1197.83 911.98"/><polygon class="cls-33" points="1144.79 626.07 1143.1 636.75 1220.1 637.97 1221.92 625.94 1144.79 626.07"/><polygon class="cls-32" points="1347.05 793.86 1329.26 880.55 1499.02 921.84 1521.31 818.23 1347.05 793.86"/><path class="cls-17" d="M676.56,480.12,639.64,557.3s-4.18,1.77-4.61-2.82c-1.41-15,19.63-54.27,5.84-58C636.71,495.35,515.11,451,515.11,451s-16.55-10.53-16.54-13.27,6.87-2.44,6.87-2.44l148.77,51.16s5.63-2.34,10.55-4.76,8.9-2.9,9.77-2.7a7.24,7.24,0,0,1,2,1.09"/></svg>