<svg id="Layer_1" data-name="Layer 1" xmlns="http://www.w3.org/2000/svg" xmlns:xlink="http://www.w3.org/1999/xlink" viewBox="0 0 1920 720"><defs><style>.cls-1,.cls-2{fill:none;}.cls-2{clip-rule:evenodd;}.cls-3{clip-path:url(#clip-path);}.cls-4{fill:url(#linear-gradient);}.cls-5{clip-path:url(#clip-path-2);}.cls-6{fill:url(#linear-gradient-2);}.cls-7{clip-path:url(#clip-path-3);}.cls-8{fill:url(#linear-gradient-3);}.cls-9{clip-path:url(#clip-path-4);}.cls-10{fill:url(#linear-gradient-4);}.cls-11{fill:#fff;}.cls-12{fill:#1798b5;}.cls-12,.cls-13,.cls-14,.cls-15,.cls-16,.cls-17,.cls-18,.cls-19,.cls-20,.cls-25,.cls-26,.cls-27{fill-rule:evenodd;}.cls-13{fill:#fba2b4;}.cls-14{fill:#f7839a;}.cls-15{fill:#e8617c;}.cls-16{fill:#f26d88;}.cls-17{fill:#162963;}.cls-18{fill:#f2778f;}.cls-19{fill:#192f6e;}.cls-20{fill:#243c82;}.cls-21{clip-path:url(#clip-path-5);}.cls-22{fill:url(#linear-gradient-5);}.cls-23{clip-path:url(#clip-path-6);}.cls-24{fill:url(#linear-gradient-6);}.cls-25{fill:#1bbeee;}.cls-26{fill:#369;}.cls-27{fill:#9ff;}</style><clipPath id="clip-path"><rect class="cls-1" x="-18.68" y="-135.71" width="1952.3" height="1130.46"/></clipPath><linearGradient id="linear-gradient" x1="957.47" y1="1212.4" x2="957.47" y2="5.21" gradientUnits="userSpaceOnUse"><stop offset="0" stop-color="#b0d8ff"/><stop offset="0.05" stop-color="#b6dbff"/><stop offset="0.47" stop-color="#ddeefe"/><stop offset="0.8" stop-color="#f5fafe"/><stop offset="1" stop-color="#fefefe"/></linearGradient><clipPath id="clip-path-2"><path class="cls-2" d="M687.08-135.71H-18.68V994.75h1952.3V575.14c-136.68-37.32-197.47,139.86-310.11-5.3-209.33-269.78-325.84-10.56-456.91-212.91-88.46-136.58-100.47-151.5-309.24-214.48S687.08-135.71,687.08-135.71"/></clipPath><linearGradient id="linear-gradient-2" x1="957.47" y1="920.75" x2="957.47" y2="5.21" gradientUnits="userSpaceOnUse"><stop offset="0" stop-color="#8cc2f7"/><stop offset="1" stop-color="#e0f3fc"/></linearGradient><clipPath id="clip-path-3"><path class="cls-2" d="M-18.68,994.75h1952.3V660.06c-148.89-35.63-147.84,97.56-241.18,98.37-34.8.31-70.17-2.22-149.42-61.21-37.24-27.72-113.22-74.24-179-67.31-81.9,8.65-135.4,55.61-202.72-10.2-94.61-92.49-44.48-40.12-47.43-156.25-2.44-95.57-60.82-166.09-163-201.62C742.05,189.16,323.6,342.73,331.21-135.71H-18.68Z"/></clipPath><linearGradient id="linear-gradient-3" x1="1133.3" y1="806.41" x2="539" y2="-467.44" gradientUnits="userSpaceOnUse"><stop offset="0" stop-color="#2abcbb"/><stop offset="0.17" stop-color="#2ab4be"/><stop offset="0.43" stop-color="#299ec6"/><stop offset="0.75" stop-color="#287ad4"/><stop offset="1" stop-color="#2759e0"/></linearGradient><clipPath id="clip-path-4"><path class="cls-2" d="M1101.57,359.07c-38.1-37.53-73.66-72.55-142.12-94.59H-18.68v94.59Zm71.28,142.14c0-2.73,0-5.45-.06-8.17a196.77,196.77,0,0,0-8.83-54.4H-18.68v62.57ZM-18.68,527.9H1011.71v13.41H-18.68Zm0-380.21H427.63L452.44,178H-18.68ZM1140.91,697.51c1.08-10.36,2.64-20.79,4.51-31.28H-18.68v31.28Z"/></clipPath><linearGradient id="linear-gradient-4" x1="760.89" y1="968.65" x2="262.15" y2="-513.11" gradientUnits="userSpaceOnUse"><stop offset="0" stop-color="#23dbdb"/><stop offset="0.14" stop-color="#23d3db"/><stop offset="0.35" stop-color="#24bddc"/><stop offset="0.62" stop-color="#2599de"/><stop offset="0.92" stop-color="#2767df"/><stop offset="1" stop-color="#2759e0"/></linearGradient><clipPath id="clip-path-5"><path class="cls-2" d="M1162.7,734.21l-13.19,61.18s-1.73,15.27-11.69,18.59-18.6-3.18-18.6-3.18l-363-170.32s-4.26-1.6-3.46-8.24c.19-1.55,4.05-19.45,9.86-45.94Z"/></clipPath><linearGradient id="linear-gradient-5" x1="944.1" y1="799.72" x2="968.71" y2="617.94" xlink:href="#linear-gradient"/><clipPath id="clip-path-6"><polygon class="cls-2" points="1222.52 300.65 1138.56 689.64 776.14 567.42 831.94 326.69 1222.52 300.65"/></clipPath><linearGradient id="linear-gradient-6" x1="984.75" y1="631.47" x2="1018.22" y2="318.48" gradientUnits="userSpaceOnUse"><stop offset="0" stop-color="#243c82"/><stop offset="1" stop-color="#1bc3f2"/></linearGradient></defs><g class="cls-3"><rect class="cls-4" x="-18.68" y="-135.71" width="1952.3" height="1130.46"/></g><g class="cls-5"><rect class="cls-6" x="-18.68" y="-135.71" width="1952.3" height="1130.46"/></g><g class="cls-7"><rect class="cls-8" x="-18.68" y="-135.71" width="1952.3" height="1130.46"/></g><g class="cls-9"><rect class="cls-10" x="-18.68" y="147.69" width="1191.55" height="549.82"/></g><path class="cls-11" d="M1124.26,631.58c-75.08-36.29-178.84-58.73-293.46-58.73s-218.38,22.44-293.46,58.73C462.49,667.75,416.2,717.65,416.2,772.69S462.49,877.63,537.34,913.8c75.08,36.28,178.84,58.73,293.46,58.73s218.38-22.45,293.46-58.73c74.85-36.17,121.14-86.07,121.14-141.11s-46.29-104.94-121.14-141.11M830.8,570.74c115,0,219,22.53,294.41,59,75.6,36.53,122.36,87.08,122.36,143s-46.76,106.46-122.36,143c-75.37,36.42-179.46,58.94-294.41,58.94s-219-22.52-294.41-58.94C460.8,879.15,414,828.6,414,772.69s46.76-106.46,122.35-143C611.76,593.27,715.85,570.74,830.8,570.74Z"/><path class="cls-12" d="M853.57,646.82c165.45,0,299.58,64.82,299.58,144.78S1019,936.38,853.57,936.38,554,871.56,554,791.6,688.12,646.82,853.57,646.82"/><path class="cls-13" d="M507.31,165.47c.53,3.19,2.12,15.41.53,34.55s-2.66,32.94-1.59,38.26-7.05,16.07-9.17,19.92-1.06,9.17-1.06,9.17l15.54,46.1s.53,6.38-5.18,8.11-10.76,2.65-12,2.52-8.9.13-8.9.13,3.06,19.13,1.86,21.13-6.77,2.92-11,5.05-5.05,5.31-5.05,5.31c10,19.36-.45,48.67-27.43,59.55-6.61,2.67-48.37-9.53-60-11.46,0,0-48.35,41.45-51.27,49.16s-.8,13.55-.8,13.55,15.41,33.48,14.35,42-18.07,12.22-18.07,12.22l-83.17-78.11L180.9,364s36.66-6.64,47-25.24,17.27-37.2,16.21-80.25S250,143.16,300.46,112.34c66-40.28,192.74-46.11,206.85,53.13"/><path class="cls-14" d="M507.31,165.47A81.82,81.82,0,0,1,508.42,178c-23.54-2.26-31.1-18.77-48.08-33.45-23.62-20.4-42.86,1.75-42.86,1.75l.29-7.58s31.49-18.66,35-18.95c2.48-.2,28.07,7.3,43.82,12.34a96.84,96.84,0,0,1,10.74,33.32"/><path class="cls-14" d="M386.9,405.55l-3-1.74S335.54,445.26,332.62,453s-.8,13.55-.8,13.55,15.41,33.48,14.35,42-18.07,12.22-18.07,12.22l-83.17-78.11L180.9,364s36.66-6.64,47-25.24,17.27-37.2,16.21-80.25c-.17-6.6-.14-13.9.2-21.62l62-48.41s-5.37,27.69,1.81,45.49c2.84,7.07,26.22,51.7,39.59,38,5.18-5.31,6.37-6.51,4.38-12.88s6.78,6.11,5.05,12.09-5.62,20.15-6.95,21.48S387.6,396,387.6,396Z"/><path class="cls-15" d="M386.9,405.55l-3-1.74S335.54,445.26,332.62,453c-6.31,8-8.81,19.15-8.81,19.15-4.59-19.31,7-41.38,18.34-56.86,7.17-9.83,16.63-32.84,16.63-32.84l17.91-3.29,6.14,4.24c2.9,7.71,4.77,12.64,4.77,12.64Z"/><path class="cls-16" d="M504.93,244.69c-1.44,2.78-4.37,8-5.81,10.21a13.23,13.23,0,0,0-3.51.54c-3.21.7-4.41,17-4.41,17l-3.32-6.64c-1.26,15.68-11.63,28.07,3,37.74,0,0-2.9-.72-9.41,2.34s-5.3,10.66-5.3,10.66C466,304,478.81,288.8,478.64,273.51c-.23-21.06-27.72-34.12-50.46-42.36,1.37-.56,17.77,1.32,19.28.93,17.37-4.48,43.2,1.68,57.47,12.61"/><path class="cls-17" d="M485.52,324.23c-22.42,2.94-54.64,5.52-76.23-23.86-31.94-43.45-21.5-104.14,10.24-119.71,3.89-1.91,12.19-2.72,9.55-8.77-8.2-18.8-.14-31.83,10.37-34.4,34.92-8.53,52.36,35.95,70.65,30.38,9.5-2.88,24.74-10.85,31.24-27.52,5.35-13.7,4.22-35.75-6-44.55-9.22-7.92-32.23-13-44.07-25.19-24.55-25.23-45.37-44-84.15-50C358.44,13,307,24,271,54.69c-81.51,69.46-44.7,131.67-40,235.37,1.18,25.93,47.41,3.89,54.53-11.67,6.55-14.31,8.82-31.93,11.75-49.53,3.72-22.32,9.55-52.48,27.36-54.08,58.92-5.27,52.34,92.39,12.48,130.73l8.51,7.71-8,5c-19.46,55.07,80.47,121.08,117,106.34,27-10.88,26.65-49.52,16.64-68.88a28.08,28.08,0,0,1,6.36-4.15c4.25-2.12,8.52-4.22,9.71-6.21s-1.86-21.13-1.86-21.13"/><path class="cls-18" d="M350.67,226.5s-6.64,6.78-6.38,11,5,7.7,5.31,8.5-2.12,6.51-2.12,6.51-3.19-11-11.16-11.69c-9.1-.76-16.92-9.61-11.29-17.67,4.91-7,15.67-10.23,15.67-10.23s3.72-2.53,4.92-5.58c3.18-8.14-3.66-13-12.56-12.14-20.92,2.09-19.7,22.54-13.61,38.58a78,78,0,0,0,8,14.88s-16.61-14.08-16.08-35.21,11.83-28.43,17.14-29.62,17-1.2,21.12,7.17,5,14.08,1.47,18.73-21.53,19-21.53,19-1.06,3.58,1.2,3.85c4,.47,8-7.3,19.93-6.11"/><path class="cls-13" d="M443.37,696.15s110.69,30.1,145.24,26.65,76.78-17.27,76.78-17.27L714,701.27c3.55-.31,7-1.15,10,1.39,10.94,9.22,35,33.75,28,39a11.47,11.47,0,0,1-3.85,2s7.44,12.62,8.24,17.14-2.53,8.89-4.39,8.63-3,4.25-13-7.57-21.25-24.72-21.25-24.72c-5.94.36-42.66,1-45.7,4.92-1.86,2.39-13.16,14.75-13.16,14.75l31.75,6s19.8.13,23.25,3.05,12,9,8.11,13-4.39,9.57-14.08,10.36S655,785.37,655,785.37c-26.77,9.72-38.65,3.43-62.18-10.49-53.06,0-110.32,6.84-163.56,10.52,0,0-10.47-1.49-15.25-6.13s-10-32.56-.13-54.34a56.46,56.46,0,0,1,29.46-28.78"/><path class="cls-19" d="M385.35,652.38s33.48,28.43,46,34.55a119.75,119.75,0,0,0,18.8,7.36c4.25,1.24,4.05,4.7,3.94,4.68a30.67,30.67,0,0,0-4.73-1.12C431.13,712.2,412.06,757,430,786c0,0-28.56.26-49.68-5.58s-22.45-10.1-22.45-10.1-27.51-72.27-6.78-99.37,34.28-18.61,34.28-18.61"/><path class="cls-20" d="M186.47,359.5s17.53-2.13,33.47,12.22c8.22,7.39,114.38,164.11,122,133.38,2-8.2-8.7-35.52-8.7-35.52s-2.72-4.89-2.11-9.26.91-7.66,4.54-11.64,9.18-9.56,9.18-9.56,52,64.46,49.84,156.39-22.32,181.74-22.32,181.74l-52.08,217.5H-18.68V556.11c0-59.74,112.65-178.79,205.15-196.61"/><path class="cls-19" d="M386,698.07c-6.31,46.31-13.7,79.18-13.7,79.18L361.61,822l-44.89-8.32L188.92,477.06s27.37-6.12,57.66,17.53,40.92,91.94,42,99.91,9,16.47,15.94,27.1,18.6,56.06,19.4,70.68,30.55,35.87,41.18,44.11,20.71-37.28,20.95-38.32"/><path class="cls-20" d="M169.06,462.4c-51.54-2.66-128.06.53-141.88,93S53.75,809.94,109,893.9s80.77,100.85,80.77,100.85H533.08s2.66-75.07-1.86-77.46-70.15-6.11-70.15-6.11l-16.2,4.25s1.32-11.17-3.19-15.68-15.94-6.38-15.94-6.38,5-9-1.33-22.58-13-15.41-13-15.41,7.77-8.5.59-20.2S395.71,823,395.71,823s1.06,1.07-3.45-8.23a25.24,25.24,0,0,0-13.82-12.23s-20.19-40.12-31.35-47-13.82-12.22-13.82-12.22-24.44-44.64-29.22-68,4.24-29.76-9-50.48-14.35-36.67-14.35-36.67c-6.36-60.39-45.77-122.29-111.6-125.68"/><path class="cls-19" d="M32.75,531.37a146.73,146.73,0,0,0-5.57,24C13.36,647.87,53.75,809.94,109,893.9s80.77,100.85,80.77,100.85H533.08s.22-6.25.42-15.2c-27.48-1.29-109.42-5.72-162.28-14.46-64.3-10.63-72.8-35.07-72.8-35.07l14.34-24.45L258,916.73l9.57-30.82c-79-14.48-118.1-97.48-149.86-162.61L177.26,709C102,677.47,40.75,619.38,32.75,531.37"/><path class="cls-17" d="M1246.48,264c21.14-2,12,22.41,10.37,33.74L1149.51,795.39s-1.73,15.27-11.69,18.59-18.6-3.18-18.6-3.18l-363-170.32s-4.26-1.6-3.46-8.24,68.55-310.73,68.55-310.73c5.3-14.64,16.52-15.61,30.36-16.28Z"/><g class="cls-21"><rect class="cls-22" x="752.01" y="586.3" width="410.68" height="231.01"/></g><g class="cls-23"><rect class="cls-24" x="776.14" y="300.65" width="446.38" height="388.99"/></g><polygon class="cls-25" points="817.22 449.66 792.24 555.41 996.83 625.55 1026.59 481.55 817.22 449.66"/><polygon class="cls-26" points="820.78 374.82 863.58 376.18 1203.88 387.03 1207.54 370.07 823.23 364.27 820.78 374.82"/><polygon class="cls-25" points="1018.36 560.33 1000.12 642.95 1133.16 687.82 1153.87 594.87 1018.36 560.33"/><polygon class="cls-27" points="821.21 433.85 818.82 442.89 969.74 464.54 971.6 452.32 821.21 433.85"/><polygon class="cls-27" points="945.09 351.35 943.43 361.85 1019.16 363.04 1020.95 351.22 945.09 351.35"/><polygon class="cls-26" points="1069.2 579.19 1066.68 590.62 1141.34 610.94 1144.66 598.05 1069.2 579.19"/><polygon class="cls-26" points="1065.75 595.8 1063.23 607.22 1137.75 628.05 1141.08 615.16 1065.75 595.8"/><polygon class="cls-26" points="1062.3 612.41 1059.77 623.83 1134.04 645.62 1137.36 632.73 1062.3 612.41"/><polygon class="cls-26" points="1058.84 629.01 1056.32 640.44 1130.32 662.36 1133.64 649.47 1058.84 629.01"/><polygon class="cls-27" points="1132.41 320 1130.76 330.5 1206.48 327.44 1208.27 315.62 1132.41 320"/><polygon class="cls-25" points="1041.04 439.43 1038.52 450.86 1177.21 465.6 1179.6 452.63 1041.04 439.43"/><polygon class="cls-25" points="1050.34 391.08 1047.82 402.5 1187.71 410.41 1190.1 397.19 1050.34 391.08"/><polygon class="cls-26" points="918.97 575.7 916.45 587.13 990.69 609.35 994.01 596.46 918.97 575.7"/><polygon class="cls-27" points="877.55 352.43 876.23 360.77 936.36 361.72 937.78 352.33 877.55 352.43"/><polygon class="cls-25" points="1035.5 483.46 1021.61 551.16 1154.17 583.4 1171.58 502.49 1035.5 483.46"/><path class="cls-17" d="M511.9,238.45l-28.83,60.28s-3.27,1.38-3.6-2.21c-1.11-11.71,15.33-42.38,4.56-45.29-3.25-.88-98.21-35.49-98.21-35.49s-12.93-8.22-12.91-10.35,5.36-1.91,5.36-1.91l116.18,40s4.4-1.83,8.23-3.72,6.95-2.27,7.63-2.1a5.67,5.67,0,0,1,1.59.84"/></svg>