<svg xmlns="http://www.w3.org/2000/svg" viewBox="0 0 800 324"><defs><style>.cls-1{fill:#082159;}.cls-2{fill:#1747b5;}.cls-3{fill:#2abcbb;}</style></defs><g id="Desk"><path class="cls-1" d="M317.9,161.08a28.94,28.94,0,0,0-7.7-19.6,25.74,25.74,0,0,0-19.25-8.4q-14,0-19.6,9.8-4.2,5.6-6.3,19.6v.7q0,4.9-.17,8.4a40,40,0,0,1-.53,5.25V284.28H168.8V161.08a28.94,28.94,0,0,0-7.7-19.6q-8.06-8.4-18.2-8.4-14.35,0-20.65,9.8Q116,153,116,174.38v109.9H19.7v-91q0-29.4,2.1-45.15a85.22,85.22,0,0,1,5.25-26.6Q38.26,82,70.45,59.23q30.8-23.1,72.45-23.1,33.6,0,60.55,17.15Q206.6,55,209.93,57c2.21,1.29,4.49,2.75,6.82,4.38a20.77,20.77,0,0,1,1.75-2.1q31.84-23.1,72.45-23.1,34.65,0,61.6,17.15Q379.85,69,397.7,99.13q3.49,8.06,6.83,15.57A99.13,99.13,0,0,1,410,130.63a131.23,131.23,0,0,1,4.2,32.55q0,53.9-34.3,88.2a113.18,113.18,0,0,1-62,32.2Z"/><path class="cls-2" d="M443.55,98.43A126.86,126.86,0,0,1,490.1,53.28a166.6,166.6,0,0,1,15.58-6.83q7.88-3,16.27-5.42a110,110,0,0,1,32.9-4.9q54.95,0,88.9,35,24.86,25.55,32.9,62.65H564q-19.61,0-29.39,6.3-9.81,6.64-9.81,20.3,0,11.9,8.4,18.55a25.42,25.42,0,0,0,19.6,8.4h123.9q-8.05,37.8-32.9,62.65-34.31,34.31-88.9,34.3a129.78,129.78,0,0,1-32.9-4.2q-19.25-5.25-31.85-12.95Q461.41,251.38,443.55,222q-16.46-27.64-16.45-61.6A123.74,123.74,0,0,1,443.55,98.43Z"/><path class="cls-3" d="M704.15,258.16c0-18.38,13.78-32.16,31.58-32.16s31.58,13.78,31.58,32.16a31.58,31.58,0,1,1-63.16,0Z"/></g></svg>